<?xml version="1.0" standalone="no"?>
<!DOCTYPE svg PUBLIC "-//W3C//DTD SVG 20010904//EN"
 "http://www.w3.org/TR/2001/REC-SVG-20010904/DTD/svg10.dtd">
<svg version="1.0" xmlns="http://www.w3.org/2000/svg"
 width="512.000000pt" height="512.000000pt" viewBox="0 0 512.000000 512.000000"
 preserveAspectRatio="xMidYMid meet">

<g transform="translate(0.000000,512.000000) scale(0.100000,-0.100000)"
fill="#000000" stroke="none">
<path d="M0 2560 l0 -2560 2560 0 2560 0 0 2560 0 2560 -2560 0 -2560 0 0
-2560z m2690 1862 c122 -17 215 -35 224 -43 6 -5 19 -9 30 -9 24 0 167 -48
181 -61 5 -5 17 -9 26 -9 22 0 242 -113 286 -146 17 -13 35 -24 38 -24 3 0 23
-12 43 -27 20 -16 41 -31 47 -35 126 -95 228 -185 297 -265 204 -236 317 -434
418 -733 17 -49 54 -229 67 -320 11 -85 9 -405 -5 -495 -6 -44 -18 -111 -26
-150 -8 -38 -18 -83 -21 -100 -4 -16 -10 -39 -15 -50 -4 -11 -20 -54 -35 -95
-46 -128 -180 -383 -241 -460 -7 -8 -40 -49 -72 -91 -85 -108 -213 -235 -307
-304 -44 -33 -81 -63 -83 -67 -2 -4 -7 -8 -12 -8 -4 0 -38 -21 -76 -46 -69
-46 -275 -154 -294 -154 -6 0 -29 -9 -53 -19 -59 -27 -137 -51 -162 -51 -11 0
-25 -4 -31 -8 -35 -31 -248 -55 -484 -54 -209 0 -318 8 -337 24 -7 5 -16 7
-22 4 -11 -7 -262 56 -286 73 -5 4 -28 13 -50 20 -41 14 -246 111 -255 121 -8
9 -89 60 -95 60 -3 0 -11 5 -18 10 -7 6 -58 44 -115 86 -134 100 -238 203
-340 339 -45 61 -86 115 -92 122 -5 7 -10 17 -10 22 0 5 -7 17 -16 25 -23 23
-150 276 -159 316 -4 19 -11 42 -16 52 -5 10 -13 26 -17 36 -5 9 -17 51 -27
92 -9 41 -21 84 -25 95 -33 88 -52 507 -30 657 7 46 15 101 17 123 2 22 8 49
13 60 5 11 11 31 14 45 11 56 27 116 35 135 5 11 21 53 36 93 65 177 203 405
350 578 160 188 442 393 690 499 65 28 77 33 130 50 28 10 59 21 70 25 50 19
190 46 315 61 46 5 86 12 89 15 7 7 337 -4 411 -14z"/>
<path d="M2210 4404 c-63 -7 -133 -17 -155 -22 -22 -6 -65 -15 -95 -22 -80
-17 -239 -75 -345 -126 -55 -26 -216 -117 -240 -136 -5 -4 -50 -37 -100 -74
-156 -115 -355 -333 -461 -504 -37 -60 -137 -258 -154 -305 -4 -11 -12 -31
-18 -45 -37 -91 -77 -246 -94 -360 -15 -109 -22 -455 -9 -515 5 -27 14 -81 20
-120 14 -100 21 -137 30 -160 5 -11 16 -47 27 -80 18 -59 24 -75 44 -115 6
-11 10 -25 10 -31 0 -15 98 -210 116 -230 8 -8 14 -19 14 -23 0 -8 46 -80 77
-121 13 -16 27 -35 31 -40 4 -6 20 -28 37 -50 30 -42 228 -243 280 -285 17
-14 77 -57 135 -97 58 -40 110 -76 115 -81 10 -8 170 -86 215 -104 14 -6 32
-14 40 -18 9 -4 31 -11 50 -15 19 -4 41 -11 50 -15 55 -27 169 -56 330 -82 84
-14 466 -14 550 0 173 28 385 86 414 113 6 5 16 9 23 9 38 0 379 192 438 247
11 10 31 26 45 36 51 35 254 244 308 317 31 41 62 81 69 89 8 7 23 29 33 50
27 49 42 71 63 95 9 11 17 24 17 29 0 6 11 33 24 61 41 86 73 160 80 186 4 14
11 35 17 48 5 12 13 32 18 45 5 12 14 47 20 77 6 30 17 85 25 122 26 116 38
369 26 519 -6 74 -14 152 -19 174 -5 22 -17 76 -26 120 -10 44 -21 88 -26 97
-5 10 -9 27 -9 37 0 11 -4 22 -9 26 -5 3 -13 20 -17 37 -3 18 -10 39 -14 48
-4 8 -32 65 -61 125 -54 112 -105 196 -193 320 -55 78 -284 314 -349 359 -190
134 -370 235 -502 281 -27 10 -54 22 -59 26 -6 5 -20 9 -31 9 -12 0 -25 3 -29
8 -4 4 -35 13 -69 20 -34 7 -82 17 -107 22 -156 34 -416 44 -600 24z m495 -74
c157 -27 227 -44 332 -79 361 -124 685 -375 928 -721 19 -27 35 -52 35 -55 0
-3 12 -24 27 -48 69 -108 148 -297 179 -427 8 -36 17 -74 20 -85 47 -183 58
-485 25 -675 -21 -118 -57 -275 -71 -305 -4 -11 -21 -54 -36 -95 -27 -73 -104
-230 -140 -285 -15 -23 -19 -24 -32 -12 -12 13 -10 22 20 68 85 134 176 380
220 599 20 98 17 533 -5 625 -64 279 -112 407 -232 610 -71 121 -158 230 -280
349 -277 273 -570 423 -975 498 -90 16 -137 19 -325 15 -252 -5 -293 -11 -534
-88 -298 -95 -552 -263 -779 -513 -131 -144 -269 -372 -333 -549 -28 -77 -37
-104 -74 -241 -28 -105 -40 -223 -39 -406 0 -184 8 -266 39 -390 9 -36 19 -81
24 -100 24 -99 98 -276 169 -402 35 -63 39 -78 18 -78 -28 0 -129 196 -188
365 -45 129 -65 215 -98 426 -13 85 -13 299 0 375 49 278 60 319 113 465 78
209 262 493 411 633 117 109 148 136 203 178 127 97 334 211 458 253 28 9 59
20 70 25 11 5 49 16 85 25 36 9 81 20 100 25 174 43 479 53 665 20z m-567
-692 c7 -7 12 -28 12 -48 0 -20 2 -39 4 -41 3 -3 23 -3 45 -1 35 4 41 7 41 28
0 14 6 24 14 24 29 0 133 -39 186 -69 125 -73 147 -80 262 -82 106 -3 108 -2
150 28 45 32 171 93 192 93 6 0 16 4 21 9 6 5 21 11 35 13 l25 3 9 -162 c4
-90 4 -235 0 -329 l-9 -169 -78 -3 c-89 -4 -107 5 -107 52 0 17 -3 48 -7 69
l-6 38 -84 -3 c-73 -3 -86 -6 -96 -23 -12 -23 -48 -51 -61 -47 -14 4 -56 -27
-56 -42 0 -8 -7 -17 -16 -20 -9 -4 -14 -9 -11 -13 4 -3 -1 -12 -11 -19 -10 -8
-12 -13 -5 -14 7 0 10 -6 7 -13 -3 -8 15 -30 43 -53 26 -21 50 -41 53 -44 3
-3 48 -42 100 -86 52 -44 124 -105 160 -135 36 -30 78 -66 94 -79 16 -14 43
-37 60 -52 l31 -26 3 -209 c1 -114 0 -257 -4 -316 l-6 -108 -70 6 c-38 3 -80
10 -94 15 l-24 10 0 264 0 264 -37 28 c-21 15 -42 34 -48 40 -10 12 -78 70
-350 296 -286 238 -265 217 -266 268 -1 66 -4 74 -39 110 -35 36 -18 33 -242
49 -5 1 -8 34 -8 75 0 87 -12 105 -68 107 -191 8 -182 9 -219 -24 -46 -41
-116 -134 -133 -177 -7 -19 -17 -39 -20 -45 -4 -5 -16 -51 -26 -102 -16 -80
-17 -102 -6 -165 15 -92 62 -229 75 -221 6 3 7 2 4 -4 -7 -12 14 -73 25 -73 4
0 8 -5 8 -11 0 -6 25 -49 55 -95 51 -79 72 -103 59 -69 -4 10 0 15 14 15 11 0
27 6 34 13 7 7 42 14 78 15 36 2 67 8 68 13 7 18 32 8 33 -13 1 -13 5 -3 10
22 5 25 7 72 5 105 -7 94 -6 92 -16 70 -7 -16 -9 -16 -9 -4 -1 9 -9 20 -18 25
-15 6 -13 8 11 13 16 3 31 12 34 19 3 9 -22 12 -100 12 -56 0 -108 4 -114 8
-6 4 -11 25 -10 47 1 22 3 64 4 93 l2 52 208 -2 207 -3 6 -315 c3 -173 6 -316
7 -318 1 -2 6 -1 11 2 4 3 18 -5 30 -18 21 -22 31 -24 123 -25 55 -1 105 -4
109 -7 8 -4 14 -303 7 -304 -2 -1 -32 -3 -68 -6 -36 -2 -103 -10 -150 -16 -82
-12 -74 -13 219 -20 281 -7 403 -15 556 -37 173 -25 213 -32 250 -42 22 -6 56
-14 75 -19 19 -5 62 -16 95 -25 33 -9 76 -20 95 -25 47 -13 139 -40 170 -50
36 -12 172 -60 195 -70 11 -4 32 -12 48 -19 15 -6 27 -16 27 -22 0 -37 -275
-349 -307 -349 -7 0 -21 4 -31 9 -9 5 -57 21 -107 36 -49 15 -101 31 -115 36
-14 4 -56 15 -95 24 -38 9 -86 20 -105 25 -111 29 -127 31 -368 59 -237 28
-667 23 -872 -10 -124 -19 -235 -40 -325 -61 -85 -19 -323 -89 -373 -109 -13
-5 -28 -9 -34 -9 -20 0 -162 146 -234 242 -75 100 -81 122 -41 133 12 4 31 10
42 15 25 11 305 103 360 118 156 44 178 49 380 92 55 12 119 24 143 27 28 3
42 10 42 20 0 10 -6 13 -16 9 -17 -6 -47 11 -40 23 2 3 -2 12 -10 19 -12 11
-14 10 -14 -3 0 -21 -23 -19 -37 4 -11 17 -10 19 8 16 17 -3 19 -2 9 10 -6 8
-20 17 -30 20 -10 3 -28 21 -39 40 -11 19 -49 70 -84 112 -179 220 -298 430
-349 622 -16 60 -21 106 -20 216 0 123 3 149 25 215 43 127 107 231 200 328
35 37 196 148 237 164 116 46 360 74 388 46z m585 -2328 c26 0 47 -3 47 -7 0
-11 -67 -53 -82 -53 -16 0 -99 65 -92 72 3 3 22 2 42 -3 20 -5 58 -9 85 -9z
m-1396 -216 c52 -43 126 -94 185 -129 58 -34 209 -110 233 -117 11 -4 53 -18
93 -32 78 -28 142 -46 262 -74 97 -22 550 -25 645 -4 337 75 531 162 813 366
20 15 40 22 53 19 20 -6 20 -7 -8 -30 -123 -103 -344 -232 -483 -283 -47 -18
-94 -35 -105 -40 -30 -13 -81 -26 -170 -45 -44 -9 -96 -21 -115 -27 -53 -15
-432 -22 -520 -8 -159 23 -317 58 -365 79 -11 5 -36 15 -55 22 -37 13 -83 32
-165 69 -63 28 -236 137 -310 195 -32 24 -62 46 -69 49 -7 3 -6 8 4 15 23 16
29 14 77 -25z"/>
<path d="M2137 1754 c-3 -4 -59 -11 -124 -16 -231 -19 -348 -36 -473 -68 -19
-5 -64 -16 -100 -25 -117 -28 -230 -63 -365 -112 -127 -46 -121 -37 -67 -107
67 -88 213 -237 224 -230 18 11 328 98 413 116 46 9 81 17 145 32 28 7 125 20
310 41 161 19 487 18 660 -1 268 -29 274 -30 460 -74 19 -4 59 -13 88 -19 30
-6 82 -20 115 -30 34 -11 98 -31 142 -45 l80 -25 75 77 c41 42 89 95 105 117
17 21 42 54 58 71 l27 32 -42 17 c-194 77 -557 178 -738 205 -256 38 -414 50
-696 50 -160 0 -293 -3 -297 -6z m63 -63 c5 -11 10 -46 10 -78 0 -69 17 -107
48 -111 43 -6 52 13 52 115 l0 94 28 -3 27 -3 3 -96 c3 -92 2 -96 -24 -123
-25 -24 -34 -27 -88 -24 -55 3 -61 5 -78 34 -19 32 -36 169 -25 198 9 22 34
20 47 -3z m412 -58 c37 -37 71 -64 75 -60 4 4 9 34 11 67 4 50 8 60 23 60 10
0 21 -5 24 -11 4 -5 4 -62 0 -124 -8 -132 -2 -130 -105 -36 l-65 59 -5 -61
c-5 -58 -7 -62 -30 -62 l-25 0 0 100 c0 97 6 135 22 135 4 0 38 -30 75 -67z
m-643 16 c21 -19 21 -23 7 -37 -13 -13 -21 -14 -56 -3 -44 13 -72 4 -90 -29
-36 -67 33 -136 101 -100 28 15 25 38 -5 33 -16 -3 -25 1 -30 13 -10 27 9 38
67 39 l52 0 -1 -39 c-3 -82 -109 -135 -190 -95 -42 21 -59 70 -55 152 1 10 16
33 34 52 29 31 37 35 88 35 43 0 60 -5 78 -21z m1061 -15 c0 -8 4 -22 9 -32 6
-9 17 -42 26 -72 9 -30 21 -65 27 -77 11 -23 5 -53 -11 -53 -5 0 -17 8 -27 17
-10 10 -40 24 -67 31 -47 12 -52 11 -74 -10 -21 -20 -25 -20 -39 -7 -13 14 -7
27 61 122 70 99 95 120 95 81z"/>
<path d="M2977 1532 c-24 -26 -21 -32 14 -32 24 0 30 3 25 16 -3 9 -6 20 -6
25 0 15 -16 10 -33 -9z"/>
</g>
</svg>
