<?xml version="1.0" standalone="no"?>
<!DOCTYPE svg PUBLIC "-//W3C//DTD SVG 20010904//EN"
 "http://www.w3.org/TR/2001/REC-SVG-20010904/DTD/svg10.dtd">
<svg version="1.0" xmlns="http://www.w3.org/2000/svg"
 width="180.000000pt" height="180.000000pt" viewBox="0 0 180.000000 180.000000"
 preserveAspectRatio="xMidYMid meet">

<g transform="translate(0.000000,180.000000) scale(0.100000,-0.100000)"
fill="#000000" stroke="none">
<path d="M0 900 l0 -900 900 0 900 0 0 900 0 900 -900 0 -900 0 0 -900z m773
653 c-7 -2 -19 -2 -25 0 -7 3 -2 5 12 5 14 0 19 -2 13 -5z m190 0 c-7 -2 -19
-2 -25 0 -7 3 -2 5 12 5 14 0 19 -2 13 -5z m-240 -10 c-7 -2 -19 -2 -25 0 -7
3 -2 5 12 5 14 0 19 -2 13 -5z m290 0 c-7 -2 -19 -2 -25 0 -7 3 -2 5 12 5 14
0 19 -2 13 -5z m12 -33 c222 -57 406 -247 460 -475 19 -78 19 -213 -1 -295
-17 -74 -73 -202 -85 -195 -4 3 3 24 16 48 47 84 70 183 69 297 0 182 -56 314
-188 445 -118 116 -239 171 -406 182 -179 11 -351 -55 -479 -185 -128 -129
-184 -262 -185 -442 -1 -114 22 -212 69 -297 13 -24 19 -43 14 -43 -15 0 -59
98 -80 178 -23 92 -25 216 -3 309 51 219 241 416 455 473 101 26 242 26 344 0z
m-495 -35 c0 -2 -10 -9 -22 -15 -22 -11 -22 -10 -4 4 21 17 26 19 26 11z m690
-21 c0 -2 -9 0 -20 6 -11 6 -20 13 -20 16 0 2 9 0 20 -6 11 -6 20 -13 20 -16z
m-740 -8 c0 -2 -8 -10 -17 -17 -16 -13 -17 -12 -4 4 13 16 21 21 21 13z m-40
-29 c0 -1 -28 -29 -62 -62 -34 -33 -54 -49 -43 -35 25 34 105 107 105 97z
m920 -79 c17 -21 29 -38 28 -38 -2 0 -30 28 -63 61 -36 37 -47 53 -28 39 18
-13 46 -40 63 -62z m-1040 -52 c0 -2 -8 -10 -17 -17 -16 -13 -17 -12 -4 4 13
16 21 21 21 13z m437 -16 c6 -22 29 -27 36 -7 3 8 22 3 68 -19 71 -35 107 -36
161 -5 18 10 43 22 56 26 22 6 22 6 22 -115 l0 -121 -32 3 c-27 2 -34 8 -36
30 -3 23 -7 26 -33 24 -17 -1 -34 -8 -39 -15 -4 -8 -12 -11 -17 -8 -5 3 -17
-2 -25 -12 -15 -18 -13 -21 20 -53 21 -19 65 -58 100 -87 l62 -53 0 -114 c0
-102 -2 -114 -17 -115 -10 -1 11 -7 47 -15 92 -20 260 -74 260 -85 0 -4 -24
-34 -53 -65 l-53 -57 -95 26 c-220 63 -448 63 -668 0 l-95 -26 -53 57 c-29 31
-53 61 -53 65 0 11 163 64 270 87 47 10 78 20 70 22 -24 5 -127 141 -168 221
-34 68 -37 82 -37 155 0 93 18 137 82 199 69 67 208 103 220 57z m654 3 c13
-16 12 -17 -3 -4 -17 13 -22 21 -14 21 2 0 10 -8 17 -17z m-1153 -88 c-18 -35
-34 -63 -36 -61 -4 5 56 126 63 126 3 0 -10 -29 -27 -65z m1182 45 c6 -11 8
-20 6 -20 -3 0 -10 9 -16 20 -6 11 -8 20 -6 20 3 0 10 -9 16 -20z m49 -105 c0
-5 -6 1 -14 15 -8 14 -14 30 -14 35 0 6 6 -1 14 -15 8 -14 14 -29 14 -35z m18
-67 c-3 -8 -6 -5 -6 6 -1 11 2 17 5 13 3 -3 4 -12 1 -19z m10 -40 c-3 -8 -6
-5 -6 6 -1 11 2 17 5 13 3 -3 4 -12 1 -19z m-1330 -105 c-2 -16 -4 -3 -4 27 0
30 2 43 4 28 2 -16 2 -40 0 -55z m1340 10 c-2 -16 -4 -5 -4 22 0 28 2 40 4 28
2 -13 2 -35 0 -50z m-1340 -90 c-3 -10 -5 -2 -5 17 0 19 2 27 5 18 2 -10 2
-26 0 -35z m1340 -30 c-2 -16 -4 -3 -4 27 0 30 2 43 4 28 2 -16 2 -40 0 -55z
m-1340 -15 c-3 -8 -6 -5 -6 6 -1 11 2 17 5 13 3 -3 4 -12 1 -19z m41 -143 c0
-5 -6 4 -13 20 -8 17 -14 37 -14 45 0 8 7 -1 14 -20 7 -19 13 -39 13 -45z
m1272 30 c-16 -47 -23 -40 -8 8 6 20 13 35 16 33 2 -3 -1 -21 -8 -41z m-1190
-176 c13 -19 16 -27 7 -19 -20 19 -87 130 -87 144 0 6 13 -12 29 -40 15 -29
38 -67 51 -85z m1161 104 c-12 -20 -14 -14 -5 12 4 9 9 14 11 11 3 -2 0 -13
-6 -23z m-61 -107 c0 -2 -8 -10 -17 -17 -16 -13 -17 -12 -4 4 13 16 21 21 21
13z m-449 -41 c1 -16 -16 -16 -36 0 -19 15 -19 15 8 13 15 -2 28 -7 28 -13z
m-541 -82 c0 -8 -9 0 -50 45 l-45 47 48 -45 c26 -24 47 -45 47 -47z m960 84
c0 -1 -24 -25 -52 -52 l-53 -50 50 53 c46 48 55 57 55 49z m-865 -102 c38 -24
96 -54 130 -65 68 -23 182 -39 235 -33 105 10 130 15 186 33 33 11 91 41 129
65 37 25 70 43 73 40 6 -6 9 -4 -51 -44 -188 -128 -437 -145 -642 -46 -61 29
-151 93 -134 95 3 0 37 -20 74 -45z m-54 -12 c13 -16 12 -17 -3 -4 -17 13 -22
21 -14 21 2 0 10 -8 17 -17z m809 13 c0 -2 -8 -10 -17 -17 -16 -13 -17 -12 -4
4 13 16 21 21 21 13z m-40 -31 c0 -2 -10 -9 -22 -15 -22 -11 -22 -10 -4 4 21
17 26 19 26 11z m-55 -35 c-3 -5 -12 -10 -18 -10 -7 0 -6 4 3 10 19 12 23 12
15 0z m-555 -30 c8 -5 11 -10 5 -10 -5 0 -17 5 -25 10 -8 5 -10 10 -5 10 6 0
17 -5 25 -10z m490 0 c-8 -5 -19 -10 -25 -10 -5 0 -3 5 5 10 8 5 20 10 25 10
6 0 3 -5 -5 -10z m-413 -26 c-3 -3 -12 -4 -19 -1 -8 3 -5 6 6 6 11 1 17 -2 13
-5z m340 0 c-3 -3 -12 -4 -19 -1 -8 3 -5 6 6 6 11 1 17 -2 13 -5z m-199 -21
c-10 -2 -26 -2 -35 0 -10 3 -2 5 17 5 19 0 27 -2 18 -5z m70 0 c-10 -2 -26 -2
-35 0 -10 3 -2 5 17 5 19 0 27 -2 18 -5z"/>
<path d="M571 1144 c-39 -44 -55 -96 -47 -153 7 -51 48 -142 73 -162 14 -12
15 -12 9 -1 -6 10 -2 13 15 10 13 -2 30 4 37 12 10 13 11 13 6 -2 -3 -10 -2
-18 4 -18 6 0 10 22 10 49 l1 50 -37 3 c-32 3 -37 7 -40 31 -4 31 1 34 76 41
83 7 82 9 82 -114 0 -78 4 -111 13 -119 8 -6 16 -8 20 -5 3 3 19 3 36 -1 30
-6 31 -8 31 -60 l0 -54 -47 -4 c-30 -2 -15 -4 38 -5 47 -1 115 -4 150 -7 35
-2 56 -2 47 1 -16 5 -18 19 -18 99 l0 94 -120 102 c-89 75 -122 110 -128 133
-7 28 -13 32 -53 36 -41 5 -44 7 -47 38 -2 17 -6 33 -10 33 -56 9 -74 5 -101
-27z"/>
<path d="M710 613 c-98 -9 -194 -28 -278 -55 l-93 -29 20 -27 c10 -15 31 -38
45 -51 l26 -25 103 27 c222 57 452 55 665 -6 l82 -24 45 48 c25 27 45 50 45
53 0 12 -196 66 -292 80 -94 14 -271 19 -368 9z m72 -47 c5 -44 28 -46 28 -2
0 19 5 38 10 41 6 4 10 -11 10 -39 0 -36 -4 -46 -20 -51 -12 -4 -27 -2 -34 4
-16 13 -29 68 -20 83 9 15 22 -3 26 -36z m161 -6 c4 0 7 9 7 20 0 11 5 20 10
20 6 0 10 -18 10 -40 0 -44 -12 -50 -42 -23 -18 16 -19 16 -25 -5 -8 -31 -23
-17 -23 22 0 43 9 50 35 26 12 -11 24 -20 28 -20z m-247 15 c0 -5 4 -18 8 -28
16 -36 -42 -65 -72 -35 -16 16 -15 51 0 66 15 15 63 12 64 -3z m378 -19 c3
-13 8 -30 11 -38 4 -11 -4 -14 -35 -13 -46 0 -48 6 -19 46 25 35 35 36 43 5z"/>
<path d="M644 555 c-7 -17 3 -35 19 -35 7 0 13 11 13 25 2 27 -23 35 -32 10z"/>
<path d="M1045 540 c-3 -5 -1 -10 4 -10 6 0 11 5 11 10 0 6 -2 10 -4 10 -3 0
-8 -4 -11 -10z"/>
</g>
</svg>
