<?xml version="1.0" encoding="UTF-8" standalone="no"?>
<!DOCTYPE svg PUBLIC "-//W3C//DTD SVG 1.1//EN" "http://www.w3.org/Graphics/SVG/1.1/DTD/svg11.dtd">
<svg version="1.1" xmlns="http://www.w3.org/2000/svg" xmlns:xlink="http://www.w3.org/1999/xlink" preserveAspectRatio="xMidYMid meet" viewBox="0 0 640 640" width="180" height="180"><defs><path d="M169.86 468.56C159.87 415.87 152.44 279.29 130.8 273.95C109.06 268.58 53.82 304.56 43.85 310.15C50.77 409.49 113.08 493.54 200.12 531.65C181.98 517.15 174.3 491.95 169.86 468.56" id="c1lnI6Nyoz"></path><path d="M552.64 206.46C577.79 101.43 493.26 94.15 493.26 94.14C526.45 102.5 551.41 132.94 536.01 197.39C529.34 225.36 519.63 252.5 505.84 277.74C458.7 364.07 390.33 437.09 316.6 502.19C301.19 515.79 285.18 529.31 266.19 537.16C255.65 541.51 243.97 543.88 232.62 543.39C255.61 549.99 279.9 553.53 305.02 553.53C449.62 553.53 566.84 436.31 566.84 291.71C566.84 261.86 561.84 233.19 552.64 206.46" id="b2Hg8lQWaS"></path><path d="M412.78 138.42C397.85 142.78 383.45 150.62 371.63 160.73C382.19 135.49 402.53 115.16 426.32 102.9C440.48 95.61 457.47 91.46 473.96 91.7C428.36 53.14 369.41 29.89 305.02 29.89C160.42 29.89 43.2 147.11 43.2 291.71C43.2 297.6 43.41 303.44 43.79 309.23C53.92 296.63 121.03 218.39 163.68 194.95C173.09 189.79 187.29 183.21 197.19 189.97C219.07 204.92 233.7 322.45 240.75 372.05C242.87 386.99 244.81 407.56 259.02 412.08C238.96 427.02 216.99 437.5 216.99 437.5C255.63 431.5 274.88 414.47 291.62 402.44C406.39 319.93 475.48 181.73 452.91 143.17C445.31 130.19 423.26 135.36 412.78 138.42" id="c1XSJi1MMQ"></path></defs><g><g><g><use xlink:href="#c1lnI6Nyoz" opacity="1" fill="#f56692" fill-opacity="1"></use><g><use xlink:href="#c1lnI6Nyoz" opacity="1" fill-opacity="0" stroke="#000000" stroke-width="1" stroke-opacity="0"></use></g></g><g><use xlink:href="#b2Hg8lQWaS" opacity="1" fill="#211c1d" fill-opacity="1"></use><g><use xlink:href="#b2Hg8lQWaS" opacity="1" fill-opacity="0" stroke="#000000" stroke-width="1" stroke-opacity="0"></use></g></g><g><use xlink:href="#c1XSJi1MMQ" opacity="1" fill="#f56692" fill-opacity="1"></use><g><use xlink:href="#c1XSJi1MMQ" opacity="1" fill-opacity="0" stroke="#000000" stroke-width="1" stroke-opacity="0"></use></g></g></g></g></svg>