<?xml version="1.0" encoding="UTF-8" standalone="no"?>
 <!DOCTYPE svg PUBLIC "-//W3C//DTD SVG 1.1//EN" "http://www.w3.org/Graphics/SVG/1.1/DTD/svg11.dtd">
<svg version="1.1" xmlns="http://www.w3.org/2000/svg" xmlns:xlink="http://www.w3.org/1999/xlink" preserveAspectRatio="xMidYMid meet" viewBox="0 0 640 640" width="32" height="32">

<g transform="translate(0.000000,32.000000) scale(0.100000,-0.100000)"
fill="#000000" stroke="none">
<path d="M0 160 l0 -160 160 0 160 0 0 160 0 160 -160 0 -160 0 0 -160z m200
48 c0 -10 -7 -18 -17 -18 -15 0 -15 -1 0 -18 19 -21 22 -49 7 -72 -7 -12 -10
-8 -10 15 0 19 -11 40 -32 62 -35 37 -48 41 -48 17 0 -10 6 -14 15 -11 18 7
21 2 30 -44 6 -31 4 -37 -14 -42 -15 -4 -21 0 -21 11 0 10 -7 26 -15 36 -18
24 -19 58 -3 74 7 7 33 11 60 10 39 -2 48 -6 48 -20z"/>
</g>
</svg>
