<?xml version="1.0" standalone="no"?>
<!DOCTYPE svg PUBLIC "-//W3C//DTD SVG 20010904//EN"
 "http://www.w3.org/TR/2001/REC-SVG-20010904/DTD/svg10.dtd">
<svg version="1.0" xmlns="http://www.w3.org/2000/svg"
 width="16.000000pt" height="16.000000pt" viewBox="0 0 16.000000 16.000000"
 preserveAspectRatio="xMidYMid meet">

<g transform="translate(0.000000,16.000000) scale(0.100000,-0.100000)"
fill="#000000" stroke="none">
<path d="M0 80 l0 -80 80 0 80 0 0 80 0 80 -80 0 -80 0 0 -80z m100 19 c0 -4
-7 -12 -15 -16 -10 -6 -11 -13 -5 -23 8 -12 10 -12 10 4 0 11 3 17 6 13 14
-13 -5 -35 -25 -30 -25 6 -40 51 -21 63 14 9 50 1 50 -11z"/>
</g>
</svg>
